<svg xmlns="http://www.w3.org/2000/svg" version="1.1" xmlns:xlink="http://www.w3.org/1999/xlink" xmlns:svgjs="http://svgjs.dev/svgjs" width="1000" height="1000" viewBox="0 0 1000 1000"><rect width="1000" height="1000" fill="#0f4e32"></rect><g transform="matrix(0.7,0,0,0.7,149.57575757575756,402.399141583189)"><svg viewBox="0 0 396 111" data-background-color="#0f4e32" preserveAspectRatio="xMidYMid meet" height="280" width="1000" xmlns="http://www.w3.org/2000/svg" xmlns:xlink="http://www.w3.org/1999/xlink"><g id="tight-bounds" transform="matrix(1,0,0,1,0.2400000000000091,-0.22604349946104207)"><svg viewBox="0 0 395.52 111.45208796749156" height="111.45208796749156" width="395.52"><g><svg viewBox="0 0 395.52 111.45208796749156" height="111.45208796749156" width="395.52"><g><svg viewBox="0 0 395.52 111.45208796749156" height="111.45208796749156" width="395.52"><g><svg viewBox="0 0 395.52 111.45208796749156" height="111.45208796749156" width="395.52"><g><svg viewBox="0 0 395.52 111.45208796749156" height="111.45208796749156" width="395.52"><g id="textblocktransform"><svg viewBox="0 0 395.52 111.45208796749156" height="111.45208796749156" width="395.52" id="textblock"><g><svg viewBox="0 0 395.52 60.11193066923447" height="60.11193066923447" width="395.52"><g transform="matrix(1,0,0,1,0,0)"><svg width="395.52" viewBox="1 -37.79999923706055 315.4200134277344 47.349998474121094" height="60.11193066923447" data-palette-color="#636365"><g class="undefined-text-0" data-fill-palette-color="primary" id="text-0"><path d="M5.85-5.65L5.9-21.4 5.85-29.85Q5.85-31.7 5.1-32.68 4.35-33.65 3.43-33.77 2.5-33.9 1.75-34.1 1-34.3 1-34.8L1-34.8Q1-35.6 2.45-35.6L2.45-35.6 10.75-35.6 15.75-35.75Q20.25-35.75 23.45-33.48 26.65-31.2 26.65-27.35L26.65-27.35Q26.65-24.8 25.68-22.88 24.7-20.95 23.53-20.1 22.35-19.25 21.38-18.63 20.4-18 20.4-17.8L20.4-17.8Q20.4-17.2 24.6-11.33 28.8-5.45 30.35-3.8L30.35-3.8Q32.25-1.45 34.95-1.45L34.95-1.45Q35.65-1.45 35.65-0.85L35.65-0.85Q35.65-0.1 35.05 0.15 34.45 0.4 32.02 0.4 29.6 0.4 27.65-0.75L27.65-0.75Q24.95-2.3 18.7-12.75L18.7-12.75Q16.3-16.65 15-16.65L15-16.65 10.9-16.65Q10.3-16.65 10.18-16.15 10.05-15.65 10.05-13.2L10.05-13.2Q10.05-13.2 10.05-9.15L10.05-9.15 10.1-6.5Q10.1-6.5 10.1-6.05L10.1-6.05Q10.1-4 11.05-2.88 12-1.75 13.18-1.58 14.35-1.4 15.3-1.18 16.25-0.95 16.25-0.45L16.25-0.45Q16.25 0.35 15.35 0.35L15.35 0.35Q15.35 0.35 8.2 0L8.2 0 2.7 0.2Q1.65 0.2 1.65-0.6L1.65-0.6Q1.65-1.45 3.75-1.7L3.75-1.7Q4.55-1.8 5.2-2.8 5.85-3.8 5.85-5.65L5.85-5.65ZM10.05-28.2L10.05-26.8Q10.05-21.65 10.1-20.43 10.15-19.2 10.45-19L10.45-19Q11.2-18.55 12.6-18.55L12.6-18.55 14.55-18.55Q18.8-18.55 20.63-20.5 22.45-22.45 22.45-25.53 22.45-28.6 20.03-31.15 17.6-33.7 12.7-33.7L12.7-33.7Q10.85-33.7 10.45-32.73 10.05-31.75 10.05-28.2L10.05-28.2ZM49.02 0.9Q43.9 0.9 40.87-2.38 37.85-5.65 37.85-10.2 37.85-14.75 40.97-18.15 44.1-21.55 49.22-21.55 54.35-21.55 57.82-18.6 61.3-15.65 61.3-10.4 61.3-5.15 57.72-2.13 54.15 0.9 49.02 0.9ZM48.45-20.2Q45.85-20.2 43.82-18.15 41.8-16.1 41.8-11.4 41.8-6.7 44.55-3.65 47.3-0.6 50.47-0.6 53.65-0.6 55.6-2.78 57.55-4.95 57.55-9.15 57.55-13.35 55.15-16.78 52.75-20.2 48.45-20.2L48.45-20.2ZM73.59 9.5L73.45 9.5 71.3 9.55Q70.34 9.55 70.34 8.9L70.34 8.9Q70.34 8.75 71.47 7.35 72.59 5.95 73.75 3.9 74.9 1.85 74.9 0.28 74.9-1.3 72.05-7.5 69.2-13.7 67.09-17.65L67.09-17.65Q66.55-18.65 65.97-19.2 65.4-19.75 65.05-19.8L65.05-19.8Q64.25-19.9 64.25-20.55 64.25-21.2 65.25-21.2L65.25-21.2 70.59-21.1 73.45-21.2Q73.8-21.2 74.07-21.03 74.34-20.85 74.34-20.65L74.34-20.65Q74.34-19.75 73.15-19.75L73.15-19.75 72.4-19.75Q71.59-19.75 71.59-18.5L71.59-18.5Q71.59-17 74.25-11.3L74.25-11.3Q74.65-10.45 75.45-8.6L75.45-8.6Q76.95-5.2 77.25-5.2 77.55-5.2 79.57-10.95 81.59-16.7 81.59-17.8 81.59-18.9 81.12-19.35 80.65-19.8 80.05-19.8L80.05-19.8Q78.5-19.7 78.5-20.65L78.5-20.65Q78.5-21.25 79.45-21.25L79.45-21.25 83.05-21.2 86.15-21.25Q87.2-21.25 87.2-20.6L87.2-20.6Q87.2-20.1 86.32-19.88 85.45-19.65 85.15-19.25L85.15-19.25Q84.34-18.1 82.45-12.95L82.45-12.95 78-1.1Q77.45 0.35 76.9 1.88 76.34 3.4 76 4.35 75.65 5.3 75.3 6.25 74.95 7.2 74.75 7.73 74.55 8.25 74.34 8.7L74.34 8.7Q73.95 9.5 73.59 9.5L73.59 9.5ZM96.44 0.75L96.44 0.75Q90.54 0.75 90.54-4.25L90.54-4.25Q90.54-7.85 93.54-9.2L93.54-9.2Q96.04-10.25 101.19-11.1L101.19-11.1Q101.34-11.15 101.59-11.18 101.84-11.2 102.12-11.25 102.39-11.3 102.54-11.35L102.54-11.35Q102.89-11.5 102.89-12.05L102.89-12.05 102.99-14.65Q102.99-17.5 101.34-18.78 99.69-20.05 98.14-20.05L98.14-20.05Q94.54-20.05 94.54-17.05L94.54-17.05 94.74-15.25Q94.74-14.25 93.84-14.25L93.84-14.25Q93.14-14.25 92.29-14.5L92.29-14.5Q90.74-15 90.74-16.2L90.74-16.2Q90.74-18.15 93.37-19.93 95.99-21.7 98.64-21.7 101.29-21.7 102.79-21.2 104.29-20.7 105.02-20.08 105.74-19.45 106.14-18.4L106.14-18.4Q106.64-17.15 106.64-14.48 106.64-11.8 106.52-9.73 106.39-7.65 106.39-5.95 106.39-4.25 106.79-3.18 107.19-2.1 107.74-1.8 108.29-1.5 108.84-1.45L108.84-1.45Q110.19-1.35 110.19-0.65L110.19-0.65Q110.19 0.4 107.04 0.4L107.04 0.4Q105.74 0.4 104.82-0.3 103.89-1 103.49-1.68 103.09-2.35 103.04-2.35 102.99-2.35 102.64-2.02 102.29-1.7 101.67-1.25 101.04-0.8 100.24-0.35L100.24-0.35Q98.39 0.75 96.44 0.75ZM102.54-10.4L102.54-10.4 102.04-10.3Q100.89-10.1 100.59-10.05 100.29-10 99.19-9.75 98.09-9.5 97.67-9.3 97.24-9.1 96.47-8.68 95.69-8.25 95.34-7.8L95.34-7.8Q94.44-6.4 94.44-4.85 94.44-3.3 95.44-2.27 96.44-1.25 98.02-1.25 99.59-1.25 100.52-1.65 101.44-2.05 101.89-2.55 102.34-3.05 102.59-3.9L102.59-3.9Q102.89-4.85 102.89-6.35L102.89-6.35 102.89-9.95Q102.89-10.4 102.54-10.4ZM115.74-5.9L115.74-9.6 115.94-30.85Q115.94-32 115.57-32.93 115.19-33.85 114.74-34.05 114.29-34.25 112.74-34.25L112.74-34.25Q112.19-34.25 112.19-34.6 112.19-34.95 112.27-35.1 112.34-35.25 112.59-35.38 112.84-35.5 113.19-35.6L113.19-35.6Q114.64-35.9 116.19-36.65L116.19-36.65Q118.64-37.8 119.39-37.8L119.39-37.8Q119.99-37.8 119.99-36.85L119.99-36.85Q119.99-36.65 119.89-35.7L119.89-35.7Q119.59-32.75 119.59-29.25L119.59-29.25 119.59-26.45 119.49-19.8 119.49-4.9Q119.49-3.85 119.67-3.18 119.84-2.5 120.82-1.88 121.79-1.25 123.54-1.25L123.54-1.25Q123.79-1.25 123.99-1 124.19-0.75 124.19-0.5L124.19-0.5Q124.19 0.2 122.64 0.2L122.64 0.2 117.59-0.15Q116.29-0.15 115.12 0.05 113.94 0.25 113.57 0.25 113.19 0.25 112.97 0.08 112.74-0.1 112.74-0.38 112.74-0.65 112.97-0.83 113.19-1 113.69-1.1L113.69-1.1Q115.19-1.5 115.49-2.33 115.79-3.15 115.79-4.6L115.79-4.6 115.74-5.9ZM128.29-18.55L128.29-18.55 127.34-18.5Q126.49-18.5 126.49-19.2L126.49-19.2Q126.49-19.7 126.94-20.05L126.94-20.05Q128.84-21.3 130.74-23.8L130.74-23.8Q131.54-24.95 132.01-25.48 132.49-26 132.99-26 133.49-26 133.49-24.85L133.49-24.85Q133.49-24.85 133.29-22L133.29-22Q133.29-21.3 133.56-21.15 133.84-21 135.34-21L135.34-21 137.09-21Q139.34-21 139.84-21.25L139.84-21.25Q140.74-21.7 140.94-21.7L140.94-21.7Q141.44-21.7 141.44-21.15L141.44-21.15Q141.44-20.75 140.79-19.58 140.14-18.4 139.84-18.4L139.84-18.4Q137.59-18.4 136.69-18.5 135.79-18.6 135.49-18.63 135.19-18.65 134.96-18.68 134.74-18.7 134.64-18.7L134.64-18.7 134.54-18.75Q133.59-18.75 133.31-18.45 133.04-18.15 133.04-17.1L133.04-17.1 132.84-7.8Q132.84-4.55 133.66-3.28 134.49-2 137.14-2L137.14-2Q138.19-2 139.46-2.48 140.74-2.95 140.84-2.95L140.84-2.95Q141.34-2.95 141.34-2.3 141.34-1.65 139.61-0.58 137.89 0.5 135.89 0.5L135.89 0.5Q129.14 0.5 129.14-5.35L129.14-5.35 129.14-6.1 129.34-17.75Q129.34-18.25 129.14-18.4 128.94-18.55 128.29-18.55ZM152.59 9.5L152.44 9.5 150.29 9.55Q149.34 9.55 149.34 8.9L149.34 8.9Q149.34 8.75 150.46 7.35 151.59 5.95 152.74 3.9 153.89 1.85 153.89 0.28 153.89-1.3 151.04-7.5 148.19-13.7 146.09-17.65L146.09-17.65Q145.54-18.65 144.96-19.2 144.39-19.75 144.04-19.8L144.04-19.8Q143.24-19.9 143.24-20.55 143.24-21.2 144.24-21.2L144.24-21.2 149.59-21.1 152.44-21.2Q152.79-21.2 153.06-21.03 153.34-20.85 153.34-20.65L153.34-20.65Q153.34-19.75 152.14-19.75L152.14-19.75 151.39-19.75Q150.59-19.75 150.59-18.5L150.59-18.5Q150.59-17 153.24-11.3L153.24-11.3Q153.64-10.45 154.44-8.6L154.44-8.6Q155.94-5.2 156.24-5.2 156.54-5.2 158.56-10.95 160.59-16.7 160.59-17.8 160.59-18.9 160.11-19.35 159.64-19.8 159.04-19.8L159.04-19.8Q157.49-19.7 157.49-20.65L157.49-20.65Q157.49-21.25 158.44-21.25L158.44-21.25 162.04-21.2 165.14-21.25Q166.19-21.25 166.19-20.6L166.19-20.6Q166.19-20.1 165.31-19.88 164.44-19.65 164.14-19.25L164.14-19.25Q163.34-18.1 161.44-12.95L161.44-12.95 156.99-1.1Q156.44 0.35 155.89 1.88 155.34 3.4 154.99 4.35 154.64 5.3 154.29 6.25 153.94 7.2 153.74 7.73 153.54 8.25 153.34 8.7L153.34 8.7Q152.94 9.5 152.59 9.5L152.59 9.5ZM173.18-17.25L173.18-20.1 173.23-25.5Q173.23-29.3 172.93-31.45L172.93-31.45Q172.78-32.7 171.61-33.4 170.43-34.1 169.56-34.1 168.68-34.1 168.41-34.43 168.13-34.75 168.13-34.95L168.13-34.95Q168.13-35.5 169.53-35.5L169.53-35.5 175.18-35.3 179.58-35.4Q180.68-35.4 180.68-34.7L180.68-34.7Q180.68-33.85 178.93-33.85L178.93-33.85Q177.93-33.85 177.48-31.8 177.03-29.75 177.03-27.6L177.03-27.6 177.03-25.75 176.93-21.15Q176.93-19.9 177.23-19.55 177.53-19.2 178.63-19.2L178.63-19.2 186.83-19.25Q186.83-19.25 196.28-19.15L196.28-19.15Q196.83-19.15 196.83-26.1L196.83-26.1 196.83-28.8Q196.83-32.55 195.33-33.4L195.33-33.4Q194.73-33.75 194.11-33.85 193.48-33.95 193.06-34.13 192.63-34.3 192.63-34.8 192.63-35.3 194.58-35.3L194.58-35.3 199.43-35.2 203.33-35.3Q204.48-35.3 204.48-34.65 204.48-34 203.78-34L203.78-34Q202.38-34 201.66-33.15 200.93-32.3 200.93-30.9L200.93-30.9 200.68-11.25 200.68-9.4 200.88-4.8Q200.88-1.55 205.08-1.1L205.08-1.1Q205.68-1.1 205.68-0.55L205.68-0.55Q205.68-0.2 205.18-0.1 204.68 0 203.23 0L203.23 0 199.38-0.25 194.68 0 193.83 0Q193.13 0 193.01-0.2 192.88-0.4 192.88-0.68 192.88-0.95 193.38-1.2 193.88-1.45 194.48-1.6 195.08-1.75 195.63-2.2L195.63-2.2Q196.68-2.95 196.68-6.9L196.68-6.9 196.83-15.75Q196.83-16.5 196.23-16.8 195.63-17.1 194.28-17.1 192.93-17.1 190.23-17L190.23-17 187.53-16.95 178.33-17.1Q177.58-17.1 177.33-16.8 177.08-16.5 177.08-15.25L177.08-15.25 176.88-9.1 176.88-6.95Q176.88-4.8 177.28-3.75 177.68-2.7 179.23-1.7L179.23-1.7Q179.63-1.45 180.68-1.45L180.68-1.45Q182.33-1.45 182.33-0.9L182.33-0.9Q182.33 0 180.73 0L180.73 0 176.58-0.2 171.18 0.05Q168.83 0.05 168.83-0.7L168.83-0.7Q168.83-1.4 170.38-1.6L170.38-1.6Q170.98-1.65 171.63-2.23 172.28-2.8 172.48-3.78 172.68-4.75 172.93-9.05 173.18-13.35 173.18-17.25L173.18-17.25ZM219.81 0.9Q214.68 0.9 211.66-2.38 208.63-5.65 208.63-10.2 208.63-14.75 211.76-18.15 214.88-21.55 220.01-21.55 225.13-21.55 228.61-18.6 232.08-15.65 232.08-10.4 232.08-5.15 228.51-2.13 224.93 0.9 219.81 0.9ZM219.23-20.2Q216.63-20.2 214.61-18.15 212.58-16.1 212.58-11.4 212.58-6.7 215.33-3.65 218.08-0.6 221.26-0.6 224.43-0.6 226.38-2.78 228.33-4.95 228.33-9.15 228.33-13.35 225.93-16.78 223.53-20.2 219.23-20.2L219.23-20.2ZM238.98-10.4L238.98-10.4 238.93-16.5Q238.93-17.7 238.4-18.2 237.88-18.7 237.23-18.7L237.23-18.7Q235.58-18.6 235.58-19.4L235.58-19.4Q235.58-19.85 236.18-20.08 236.78-20.3 237.98-20.55 239.18-20.8 239.73-21.03 240.28-21.25 240.63-21.45 240.98-21.65 241.13-21.7L241.13-21.7Q241.58-21.9 242.18-21.9 242.78-21.9 242.78-20.45L242.78-20.45 242.53-18.35Q242.53-17.75 242.83-17.75L242.83-17.75Q242.88-17.75 243.15-18.13 243.43-18.5 243.9-19.03 244.38-19.55 245.08-20.1L245.08-20.1Q246.78-21.35 249.1-21.35 251.43-21.35 252.78-20.73 254.13-20.1 254.65-19.38 255.18-18.65 255.53-18.03 255.88-17.4 255.95-17.4 256.03-17.4 256.9-18.43 257.78-19.45 259.4-20.48 261.03-21.5 262.83-21.5L262.83-21.5Q266.48-21.5 268.45-19.35 270.43-17.2 270.75-14.13 271.08-11.05 271.08-7.65L271.08-7.65 271.08-6.05Q271.08-3.8 271.33-2.8 271.58-1.8 272.48-1.5L272.48-1.5Q272.53-1.5 272.93-1.43 273.33-1.35 273.63-1.3L273.63-1.3Q274.38-1.15 274.38-0.55L274.38-0.55Q274.38 0.2 272.73 0.2L272.73 0.2 269.43 0 265.83 0.2Q264.63 0.2 264.63-0.33 264.63-0.85 265.68-1.25 266.73-1.65 266.93-2.1L266.93-2.1Q267.13-2.65 267.13-4.4L267.13-4.4 267.13-5.2 267.08-10.5 266.93-13.8Q266.93-14.35 266.78-14.83 266.63-15.3 266.6-15.55 266.58-15.8 266.33-16.15 266.08-16.5 266.03-16.6L266.03-16.6Q265.83-17 265.23-17.6L265.23-17.6Q263.93-19.15 261.48-19.15L261.48-19.15Q260.33-19.15 259.08-18.55 257.83-17.95 257.08-17.32 256.33-16.7 256.33-16.5 256.33-16.3 256.43-15.75L256.43-15.75Q256.63-14.1 256.63-10.1L256.63-10.1 256.63-5.85Q256.63-3.55 257.28-2.48 257.93-1.4 260.08-1.1L260.08-1.1Q260.58-1.05 260.78-0.78 260.98-0.5 260.98-0.3L260.98-0.3Q260.98 0.25 260.03 0.25L260.03 0.25 256.38 0 251.83 0.25Q250.73 0.25 250.73-0.4L250.73-0.4Q250.73-0.75 250.93-0.93 251.13-1.1 251.65-1.3 252.18-1.5 252.35-1.6 252.53-1.7 252.78-2.45 253.03-3.2 253.03-3.95L253.03-3.95 253.03-4.9 253.08-6.9 253.08-9.95 253.03-12.6 252.98-13.1Q252.98-15.75 251.63-17.35 250.28-18.95 248.03-18.95 245.78-18.95 244.13-17.85 242.48-16.75 242.48-15.3L242.48-15.3 242.48-5.2Q242.48-3.4 243.13-2.45 243.78-1.5 244.58-1.38 245.38-1.25 246.03-1.1 246.68-0.95 246.68-0.6L246.68-0.6Q246.68-0.15 246.53 0 246.38 0.15 245.63 0.15L245.63 0.15 241.43 0 237.48 0.15Q236.28 0.15 236.28-0.6L236.28-0.6Q236.28-1.15 237.18-1.3L237.18-1.3Q237.53-1.35 237.93-1.73 238.33-2.1 238.65-3.15 238.98-4.2 238.98-10.4ZM287.88 0.95Q283.48 0.95 280.4-1.75 277.33-4.45 277.33-9.58 277.33-14.7 280.15-18.15 282.98-21.6 287.48-21.6L287.48-21.6Q289.58-21.6 291.3-20.85 293.03-20.1 293.98-19.03 294.93-17.95 295.58-16.75L295.58-16.75Q296.68-14.7 296.68-13.65L296.68-13.65Q296.68-12.75 294.63-12.75L294.63-12.75 281.78-12.75Q281.38-12.75 281.3-12.68 281.23-12.6 281.23-12.2L281.23-12.2Q281.23-7.5 283.75-4.8 286.28-2.1 289.68-2.1L289.68-2.1Q291.78-2.1 293.95-3.23 296.13-4.35 296.23-4.35L296.23-4.35Q296.73-4.35 296.73-3.9L296.73-3.9Q296.73-3.3 295.63-2.27 294.53-1.25 293.53-0.6L293.53-0.6Q291.13 0.95 287.88 0.95L287.88 0.95ZM282.18-13.95L282.18-13.95 290.98-14.25Q291.68-14.25 291.85-14.38 292.03-14.5 292.03-14.85L292.03-14.85Q292.03-16.35 290.63-18.35 289.23-20.35 286.73-20.35 284.23-20.35 282.88-18.38 281.53-16.4 281.53-14.65L281.53-14.65Q281.53-13.95 282.18-13.95ZM315.07-20.05L315.07-20.05 315.27-17.05Q315.27-16.2 315.07-15.9 314.87-15.6 314.5-15.6 314.12-15.6 313.7-16.32 313.27-17.05 312.75-17.9 312.22-18.75 311.05-19.48 309.87-20.2 308.37-20.2 306.87-20.2 305.92-19.48 304.97-18.75 304.97-17.9 304.97-17.05 305.12-16.53 305.27-16 305.65-15.6 306.02-15.2 306.3-14.93 306.57-14.65 307.22-14.35 307.87-14.05 308.2-13.93 308.52-13.8 309.27-13.5L309.27-13.5Q313.82-11.9 315.12-10.38 316.42-8.85 316.42-6 316.42-3.15 313.77-0.75L313.77-0.75Q311.97 0.8 308.82 0.8L308.82 0.8Q306.67 0.8 304.02-0.25L304.02-0.25Q303.27-0.55 303.15-0.58 303.02-0.6 302.75-0.7 302.47-0.8 302.35-0.83 302.22-0.85 302.02-0.95 301.82-1.05 301.75-1.13 301.67-1.2 301.57-1.35L301.57-1.35Q301.42-1.6 301.42-2.15L301.42-2.15 301.42-6.5Q301.42-7.05 301.65-7.43 301.87-7.8 302.27-7.8 302.67-7.8 302.85-7.58 303.02-7.35 303.17-6.65 303.32-5.95 303.47-5.65L303.47-5.65Q305.32-1.05 308.67-1.05L308.67-1.05Q310.22-1.05 311.62-1.88 313.02-2.7 313.02-4.48 313.02-6.25 311.87-7.35 310.72-8.45 309.07-9.08 307.42-9.7 305.77-10.38 304.12-11.05 302.97-12.38 301.82-13.7 301.82-15.7L301.82-15.7Q301.82-18.5 304.07-20.2 306.32-21.9 309.02-21.9 311.72-21.9 313.12-21.48 314.52-21.05 314.8-20.7 315.07-20.35 315.07-20.05Z" fill="#636365" data-fill-palette-color="primary"></path></g></svg></g></svg></g><g transform="matrix(1,0,0,1,208.4543609752933,74.30291481390466)"><svg viewBox="0 0 187.06563902470668 37.1491731535869" height="37.1491731535869" width="187.06563902470668"><g transform="matrix(1,0,0,1,0,0)"><svg width="187.06563902470668" viewBox="3.4000000953674316 -37.5 192.1800079345703 38" height="37.1491731535869" data-palette-color="#89939e"><g class="undefined-text-1" data-fill-palette-color="secondary" id="text-1"><path d="M3.4 0L3.4-35 12.9-35Q18.4-35 21.5-32.3 24.6-29.6 24.6-24.25L24.6-24.25Q24.6-21.15 23.23-18.7 21.85-16.25 19.4-14.9L19.4-14.9 26.25 0 20.2 0 14.2-13.4Q13.9-13.35 13.05-13.35L13.05-13.35 8.65-13.35 8.65 0 3.4 0ZM8.65-18L12.45-18Q15.85-18 17.5-19.53 19.15-21.05 19.15-24.15L19.15-24.15Q19.15-27.3 17.5-28.83 15.85-30.35 12.45-30.35L12.45-30.35 8.65-30.35 8.65-18ZM39.85 0.5Q36.1 0.5 33.47-1.23 30.85-2.95 29.52-5.9 28.2-8.85 28.2-12.45L28.2-12.45Q28.2-16 29.42-18.9 30.65-21.8 33.02-23.48 35.4-25.15 38.7-25.15L38.7-25.15Q42.85-25.15 45.37-22.3 47.9-19.45 47.9-14.5L47.9-14.5Q47.9-13.4 47.65-11.8L47.65-11.8 33.4-11.8Q33.6-7.9 35.5-5.9 37.4-3.9 40.3-3.9L40.3-3.9Q41.95-3.9 43.62-4.33 45.3-4.75 46.65-5.55L46.65-5.55 46.95-1.05Q44.1 0.5 39.85 0.5L39.85 0.5ZM33.55-15.35L42.75-15.35Q42.75-17.8 41.72-19.3 40.7-20.8 38.55-20.8L38.55-20.8Q36.55-20.8 35.25-19.43 33.95-18.05 33.55-15.35L33.55-15.35ZM56.5 0.5Q53.7 0.5 51.84-1.43 50-3.35 50-6.55L50-6.55Q50-9.85 52-11.85 54-13.85 56.77-14.7 59.55-15.55 62.15-15.6L62.15-15.6Q62.15-18.35 61.27-19.48 60.4-20.6 58.3-20.6L58.3-20.6Q55.4-20.6 52.34-18.5L52.34-18.5 51.84-22.75Q55.3-25.15 59.45-25.15L59.45-25.15Q63.34-25.15 65.32-22.9 67.3-20.65 67.3-15.7L67.3-15.7 67.3-8.4Q67.3-5.65 67.67-4.7 68.05-3.75 69.25-3.75L69.25-3.75 69.9-3.75 69.45 0.5 67.75 0.5Q64.15 0.5 62.84-2.8L62.84-2.8Q60.2 0.5 56.5 0.5L56.5 0.5ZM58.15-3.6Q59.25-3.6 60.3-4.3 61.34-5 62.2-6.25L62.2-6.25 62.2-12.05Q55.34-11.55 55.34-6.95L55.34-6.95Q55.34-3.6 58.15-3.6L58.15-3.6ZM78.54 0.5Q75.79 0.5 74.42-1.23 73.04-2.95 73.04-5.7L73.04-5.7 73.04-37.5 78.14-37.5 78.14-8.05Q78.14-6.2 78.34-5.33 78.54-4.45 79.12-4.1 79.69-3.75 80.89-3.75L80.89-3.75 80.39 0.5 78.54 0.5Z" fill="#636365" data-fill-palette-color="primary"></path><path d="M84.19 0L84.19-35 103.34-35 103.34-30.2 89.44-30.2 89.44-20.7 100.29-20.7 100.29-15.9 89.44-15.9 89.44-4.8 103.74-4.8 103.74 0 84.19 0ZM114.09 0.5Q111.94 0.5 110.16 0.03 108.39-0.45 106.74-1.4L106.74-1.4 107.29-6.2Q110.69-3.7 113.69-3.7L113.69-3.7Q115.44-3.7 116.41-4.4 117.39-5.1 117.39-6.45L117.39-6.45Q117.39-7.85 116.44-8.68 115.49-9.5 112.54-10.9L112.54-10.9Q109.64-12.25 108.31-13.88 106.99-15.5 106.99-18.2L106.99-18.2Q106.99-21.3 109.19-23.23 111.39-25.15 115.09-25.15L115.09-25.15Q118.74-25.15 121.49-23.45L121.49-23.45 120.94-18.9Q119.54-20 118.29-20.53 117.04-21.05 115.44-21.05L115.44-21.05Q113.84-21.05 112.89-20.35 111.94-19.65 111.94-18.4L111.94-18.4Q111.94-17.15 112.84-16.43 113.74-15.7 116.39-14.4L116.39-14.4Q119.59-12.9 120.99-11.23 122.39-9.55 122.39-6.85L122.39-6.85Q122.39-3.4 120.14-1.45 117.89 0.5 114.09 0.5L114.09 0.5ZM133.09 0.5Q130.29 0.5 128.81-1.18 127.34-2.85 127.34-5.65L127.34-5.65 127.34-20.55 124.24-20.55 124.69-24.7 127.34-24.7 127.34-30.55 132.44-31.05 132.44-24.7 137.29-24.7 137.29-20.55 132.44-20.55 132.44-7.3Q132.44-5.4 133.19-4.58 133.94-3.75 135.64-3.75L135.64-3.75 137.29-3.75 136.84 0.5 133.09 0.5ZM145.73 0.5Q142.93 0.5 141.08-1.43 139.23-3.35 139.23-6.55L139.23-6.55Q139.23-9.85 141.23-11.85 143.23-13.85 146.01-14.7 148.78-15.55 151.38-15.6L151.38-15.6Q151.38-18.35 150.51-19.48 149.63-20.6 147.53-20.6L147.53-20.6Q144.63-20.6 141.58-18.5L141.58-18.5 141.08-22.75Q144.53-25.15 148.68-25.15L148.68-25.15Q152.58-25.15 154.56-22.9 156.53-20.65 156.53-15.7L156.53-15.7 156.53-8.4Q156.53-5.65 156.91-4.7 157.28-3.75 158.48-3.75L158.48-3.75 159.13-3.75 158.68 0.5 156.98 0.5Q153.38 0.5 152.08-2.8L152.08-2.8Q149.43 0.5 145.73 0.5L145.73 0.5ZM147.38-3.6Q148.48-3.6 149.53-4.3 150.58-5 151.43-6.25L151.43-6.25 151.43-12.05Q144.58-11.55 144.58-6.95L144.58-6.95Q144.58-3.6 147.38-3.6L147.38-3.6ZM169.43 0.5Q166.63 0.5 165.16-1.18 163.68-2.85 163.68-5.65L163.68-5.65 163.68-20.55 160.58-20.55 161.03-24.7 163.68-24.7 163.68-30.55 168.78-31.05 168.78-24.7 173.63-24.7 173.63-20.55 168.78-20.55 168.78-7.3Q168.78-5.4 169.53-4.58 170.28-3.75 171.98-3.75L171.98-3.75 173.63-3.75 173.18 0.5 169.43 0.5ZM187.53 0.5Q183.78 0.5 181.15-1.23 178.53-2.95 177.2-5.9 175.88-8.85 175.88-12.45L175.88-12.45Q175.88-16 177.1-18.9 178.33-21.8 180.7-23.48 183.08-25.15 186.38-25.15L186.38-25.15Q190.53-25.15 193.05-22.3 195.58-19.45 195.58-14.5L195.58-14.5Q195.58-13.4 195.33-11.8L195.33-11.8 181.08-11.8Q181.28-7.9 183.18-5.9 185.08-3.9 187.98-3.9L187.98-3.9Q189.63-3.9 191.3-4.33 192.98-4.75 194.33-5.55L194.33-5.55 194.63-1.05Q191.78 0.5 187.53 0.5L187.53 0.5ZM181.23-15.35L190.43-15.35Q190.43-17.8 189.4-19.3 188.38-20.8 186.23-20.8L186.23-20.8Q184.23-20.8 182.93-19.43 181.63-18.05 181.23-15.35L181.23-15.35Z" fill="#89939e" data-fill-palette-color="secondary"></path></g></svg></g></svg></g></svg></g></svg></g></svg></g></svg></g></svg></g><defs></defs></svg><rect width="395.52" height="111.45208796749156" fill="none" stroke="none" visibility="hidden"></rect></g></svg></g></svg>